<svg t="1666952294396" class="icon" viewBox="0 0 1024 1024" version="1.1" xmlns="http://www.w3.org/2000/svg" p-id="1402" width="200" height="200">
	<path d="M512 65c247.42 0 448 200.58 448 448S759.42 961 512 961 64 760.42 64 513 264.58 65 512 65z m32 73.34V233c0 4.42-3.58 8-8 8h-48c-4.42 0-8-3.58-8-8v-94.66C297.87 153.69 152.69 298.87 137.34 481H232c4.42 0 8 3.58 8 8v48c0 4.42-3.58 8-8 8h-94.66C152.69 727.13 297.87 872.31 480 887.66V793c0-4.42 3.58-8 8-8h48c4.42 0 8 3.58 8 8v94.66C726.13 872.31 871.31 727.13 886.66 545H792c-4.42 0-8-3.58-8-8v-48c0-4.42 3.58-8 8-8h94.66C871.31 298.87 726.13 153.69 544 138.34zM512 397c63.51 0 115 51.49 115 115s-51.49 115-115 115-115-51.49-115-115 51.49-115 115-115z" p-id="1403">
	</path>
</svg>
