<?xml version="1.0" standalone="no"?>
<!DOCTYPE svg PUBLIC "-//W3C//DTD SVG 1.1//EN" "http://www.w3.org/Graphics/SVG/1.1/DTD/svg11.dtd">
<svg t="1722933875376" class="icon" viewBox="0 0 1024 1024" version="1.1" xmlns="http://www.w3.org/2000/svg" p-id="6876" xmlns:xlink="http://www.w3.org/1999/xlink" width="256" height="256">
	<path d="M791.27552 812.70784l-31.25248-11.63776c-81.19296-30.2336-170.30656-45.56288-264.85248-45.56288-81.51552 0-159.03744 11.392-230.4 33.85856l-30.14144 9.49248L5.84704 250.43456l34.29888-12.26752c140.3904-50.21696 293.48352-75.67872 455.02464-75.67872 174.49984 0 339.56352 29.696 490.61888 88.2688l32.99328 12.79488-227.5072 549.15584z m-296.11008-126.37696c90.78784 0 177.2288 13.09696 257.44896 38.95808l174.96576-422.33344c-133.96992-47.32928-279.2448-71.29088-432.41472-71.29088-140.38528 0-273.81248 20.13696-397.2096 59.904l176.4352 422.9376c69.46816-18.70336 143.57504-28.17536 220.7744-28.17536z" fill="#d81e06" p-id="6877">
	</path>
</svg>
