<?xml version="1.0" standalone="no"?><!DOCTYPE svg PUBLIC "-//W3C//DTD SVG 1.1//EN" "http://www.w3.org/Graphics/SVG/1.1/DTD/svg11.dtd"><svg t="1713878124407" class="icon" viewBox="0 0 1024 1024" version="1.1" xmlns="http://www.w3.org/2000/svg" p-id="1497" width="256" height="256" xmlns:xlink="http://www.w3.org/1999/xlink"><path d="M512 42.666667a42.666667 42.666667 0 0 0-42.666667 42.666666v426.666667a42.666667 42.666667 0 1 0 85.333334 0V85.333333a42.666667 42.666667 0 0 0-42.666667-42.666666zM85.333333 517.717333c0-169.301333 102.229333-320 256.810667-386.261333a42.666667 42.666667 0 0 1 33.621333 78.421333C252.16 262.869333 170.666667 382.976 170.666667 517.717333 170.666667 702.890667 323.328 853.333333 512 853.333333c188.672 0 341.333333-150.4 341.333333-335.616 0-132.394667-78.677333-250.837333-199.04-305.194666a42.666667 42.666667 0 1 1 35.114667-77.738667C839.936 202.752 938.666667 351.317333 938.666667 517.717333 938.666667 750.336 747.52 938.666667 512 938.666667S85.333333 750.336 85.333333 517.717333z" fill="#d81e06" p-id="1498"></path></svg>