<?xml version="1.0" encoding="UTF-8"?>
<svg width="200px" height="200px" viewBox="0 0 200 200" version="1.1" xmlns="http://www.w3.org/2000/svg" xmlns:xlink="http://www.w3.org/1999/xlink">
	<title>
		A2-缺陷明细
	</title>
	<g id="A2-缺陷明细" stroke="none" stroke-width="1" fill="none" fill-rule="evenodd">
		<g fill="grey" fill-rule="nonzero" id="编组">
			<g transform="translate(8.000000, 16.000000)">
				<path d="M56,-8 C61.1912574,-8 64.9840667,-3.14214642 63.7802733,1.86267551 L63.7181106,2.10493925 L50.883,49.164 L75.8848002,55.2251992 C79.6019846,56.1263348 82.1489671,59.5266043 81.9934771,63.3242814 L81.9786698,63.5838051 L80.81,79.547 L109.328,44.995 L89.5439778,38.6136689 C85.001842,37.1484639 82.7620987,32.0708353 84.6913732,27.7464316 L84.798726,27.5155126 L99.798726,-3.48448742 C101.093114,-6.15955575 103.758948,-7.88938191 106.713237,-7.99488368 L107,-8 L152,-8 C165.122286,-8 175.784846,2.5313372 175.996785,15.6031161 L176,16 L176,89 C176,93.418278 172.418278,97 168,97 C163.665086,97 160.135457,93.5521622 160.003807,89.2491793 L160,89 L160,16 C160,11.6650857 156.552162,8.13545713 152.249179,8.00380682 L152,8 L112.016,8 L103.205,26.208 L125.456022,33.3863311 C130.751513,35.0945539 132.706811,41.5319137 129.331895,45.8897937 L129.169784,46.0925203 L77.1697842,109.09252 C72.2588078,115.042357 62.655114,111.27188 63.006895,103.657907 L63.0213302,103.416195 L65.526,69.177 L39.1151998,62.7748008 C34.8158806,61.7325416 32.1942669,57.4079208 33.2199248,53.1367459 L33.2818894,52.8950608 L45.525,8 L16,8 C11.6650857,8 8.13545713,11.4478378 8.00380682,15.7508207 L8,16 L8,152 C8,156.334914 11.4478378,159.864543 15.7508207,159.996193 L16,160 L85,160 C89.418278,160 93,163.581722 93,168 C93,172.334914 89.5521622,175.864543 85.2491793,175.996193 L85,176 L16,176 C2.87771434,176 -7.78484571,165.468663 -7.99678469,152.396884 L-8,152 L-8,16 C-8,2.87771434 2.5313372,-7.78484571 15.6031161,-7.99678469 L16,-8 L56,-8 Z M184,160 C188.418278,160 192,163.581722 192,168 C192,172.334914 188.552162,175.864543 184.249179,175.996193 L184,176 L112,176 C107.581722,176 104,172.418278 104,168 C104,163.665086 107.447838,160.135457 111.750821,160.003807 L112,160 L184,160 Z M184,136 C188.418278,136 192,139.581722 192,144 C192,148.334914 188.552162,151.864543 184.249179,151.996193 L184,152 L112,152 C107.581722,152 104,148.418278 104,144 C104,139.665086 107.447838,136.135457 111.750821,136.003807 L112,136 L184,136 Z M184,112 C188.418278,112 192,115.581722 192,120 C192,124.334914 188.552162,127.864543 184.249179,127.996193 L184,128 L112,128 C107.581722,128 104,124.418278 104,120 C104,115.665086 107.447838,112.135457 111.750821,112.003807 L112,112 L184,112 Z" id="形状结合">
				</path>
			</g>
		</g>
	</g>
</svg>
