<?xml version="1.0" encoding="UTF-8"?>
<svg width="200px" height="200px" viewBox="0 0 200 200" version="1.1" xmlns="http://www.w3.org/2000/svg" xmlns:xlink="http://www.w3.org/1999/xlink">
	<title>
		A3-配方管理
	</title>
	<g id="A3-配方管理" stroke="none" stroke-width="1" fill="none" fill-rule="evenodd">
		<g fill="grey" fill-rule="nonzero" id="编组">
			<g>
				<path d="M168,0 C185.673112,0 200,14.326888 200,32 L200,134 C200,151.673112 185.673112,166 168,166 L108,166 L108,183 C108,183.338989 107.978916,183.673054 107.937987,184.000955 L140,184 C144.418278,184 148,187.581722 148,192 C148,196.334914 144.552162,199.864543 140.249179,199.996193 L140,200 L60,200 C55.581722,200 52,196.418278 52,192 C52,187.665086 55.4478378,184.135457 59.7508207,184.003807 L60,184 L92.0620129,184.000955 C92.0311494,183.753691 92.0115701,183.502922 92.0038068,183.249179 L92,183 L92,166 L32,166 C14.326888,166 0,151.673112 0,134 L0,32 C0,14.326888 14.326888,0 32,0 L168,0 Z M168,16 L32,16 C23.2686411,16 16.1707953,22.993901 16.0030364,31.6851293 L16,32 L16,134 C16,142.731359 22.993901,149.829205 31.6851293,149.996964 L32,150 L168,150 C176.731359,150 183.829205,143.006099 183.996964,134.314871 L184,134 L184,32 C184,23.2686411 177.006099,16.1707953 168.314871,16.0030364 L168,16 Z M58,38 C62.3349143,38 65.8645429,41.4478378 65.9961932,45.7508207 L66,46 L66.0011932,57.5102109 C69.6274886,60.0401927 72,64.2430315 72,69 C72,73.7569685 69.6274886,77.9598073 66.0011932,80.4897891 L66,118 C66,122.418278 62.418278,126 58,126 C53.6650857,126 50.1354571,122.552162 50.0038068,118.249179 L50,118 L49.9998067,80.4904866 C46.3729475,77.9605798 44,73.7574057 44,69 C44,64.2425943 46.3729475,60.0394202 49.9998067,57.5095134 L50,46 C50,41.581722 53.581722,38 58,38 Z M100,38 C104.334914,38 107.864543,41.4478378 107.996193,45.7508207 L108,46 L108.001193,77.5102109 C111.627489,80.0401927 114,84.2430315 114,89 C114,93.7569685 111.627489,97.9598073 108.001193,100.489789 L108,118 C108,122.334914 104.552162,125.864543 100.249179,125.996193 L100,126 L100,126 C95.6650857,126 92.1354571,122.552162 92.0038068,118.249179 L92,118 L91.9998067,100.490487 C88.3729475,97.9605798 86,93.7574057 86,89 C86,84.2425943 88.3729475,80.0394202 91.9998067,77.5095134 L92,46 C92,41.581722 95.581722,38 100,38 Z M142,38 C146.334914,38 149.864543,41.4478378 149.996193,45.7508207 L150,46 L150.001193,60.5102109 C153.627489,63.0401927 156,67.2430315 156,72 C156,76.7569685 153.627489,80.9598073 150.001193,83.4897891 L150,118 C150,122.418278 146.418278,126 142,126 C137.665086,126 134.135457,122.552162 134.003807,118.249179 L134,118 L133.999807,83.4904866 C130.372947,80.9605798 128,76.7574057 128,72 C128,67.2425943 130.372947,63.0394202 133.999807,60.5095134 L134,46 C134,41.581722 137.581722,38 142,38 Z" id="形状结合">
				</path>
			</g>
		</g>
	</g>
</svg>
