<?xml version="1.0" encoding="UTF-8"?>
<svg width="200px" height="200px" viewBox="0 0 200 200" version="1.1" xmlns="http://www.w3.org/2000/svg" xmlns:xlink="http://www.w3.org/1999/xlink">
	<title>
		A1-实时监控
	</title>
	<g id="A1-实时监控" stroke="none" stroke-width="1" fill="none" fill-rule="evenodd">
		<g fill="grey" id="编组" transform="translate(4.000000, 0.000000)">
			<path d="M1.43475017,77.4299 C3.95775017,73.8029 8.94375017,72.9099 12.5707502,75.4329 L12.5707502,75.4329 L134.21075,160.0949 L167.34875,148.4519 C171.51675,146.9879 176.08375,149.1799 177.54775,153.3479 C179.01275,157.5159 176.82075,162.0829 172.65275,163.5479 L172.65275,163.5479 L135.65275,176.5479 C134.78975,176.8509 133.89275,176.9999 133.00075,176.9999 C131.38775,176.9999 129.78975,176.5119 128.43075,175.5659 L128.43075,175.5659 L64.6177502,131.1529 L39.5317502,166.6189 C38.0327502,168.7399 35.5977502,169.9999 33.0007502,169.9999 L33.0007502,169.9999 L16.0007502,169.9999 L16.0007502,191.9999 C16.0007502,196.4179 12.4187502,199.9999 8.00075017,199.9999 C3.58275017,199.9999 0,196.4179 0,191.9999 L0,191.9999 L0,124.9999 C0,120.5809 3.58275017,116.9999 8.00075017,116.9999 C12.4187502,116.9999 16.0007502,120.5809 16.0007502,124.9999 L16.0007502,124.9999 L16.0007502,153.9999 L28.8597502,153.9999 L51.4857502,122.0129 L3.43075017,88.5659 C-0.196249826,86.0419 -1.08924983,81.0559 1.43475017,77.4299 Z M46.4989049,0 C48.0838843,0 49.6329322,0.473 50.9494233,1.357 L50.9494233,1.357 L188.464353,93.826 C192.126374,96.288 193.102514,101.258 190.645197,104.926 C190.169104,105.637 189.583221,106.266 188.908507,106.79 L188.908507,106.79 L150.899942,136.322 C149.499611,137.41 147.77889,138 146.007266,138 L146.007266,138 L139.244155,138 C137.628235,138 136.050242,137.509 134.718779,136.591 L134.718779,136.591 L15.4600574,54.384 C13.294185,52.892 12.0006502,50.427 12.0006502,47.793 L12.0006502,47.793 L12.0006502,41.344 C12.0006502,39.813 12.4388151,38.315 13.263244,37.027 L13.263244,37.027 L34.5965878,3.683 C36.0647898,1.388 38.5989603,0 41.3197751,0 L41.3197751,0 Z M45.1993815,16.76 L28.0151305,43.618 L141.725426,122 L143.273476,122 L170.382812,100.936 L45.1993815,16.76 Z" id="形状结合">
			</path>
		</g>
	</g>
</svg>
