<?xml version="1.0" encoding="UTF-8"?>
<svg width="512px" height="512px" viewBox="0 0 512 512" version="1.1" xmlns="http://www.w3.org/2000/svg" xmlns:xlink="http://www.w3.org/1999/xlink">
    <title>UBSense</title>
    <defs>
        <linearGradient x1="-0.00373276316%" y1="49.9835017%" x2="99.9953668%" y2="49.9835017%" id="linearGradient-1">
            <stop stop-color="#FFFFFF" offset="0%"></stop>
            <stop stop-color="#1F8FCA" offset="0%"></stop>
            <stop stop-color="#1836A1" offset="42.2%"></stop>
            <stop stop-color="#183661" offset="99.64%"></stop>
        </linearGradient>
    </defs>
    <g id="1-web" stroke="none" stroke-width="1" fill="none" fill-rule="evenodd">
        <g id="画板" transform="translate(-397.000000, -1638.000000)" fill="url(#linearGradient-1)" fill-rule="nonzero">
            <g id="UBSense" transform="translate(397.000000, 1638.000000)">
                <path d="M485.684987,257.903884 C485.684987,257.811011 485.684987,257.780054 485.684987,257.687181 C502.88556,238.83409 513.027116,213.387061 511.917402,185.556307 C509.728798,131.195013 463.583176,89 409.42295,89 L261.22449,89 L261.22449,152.493744 C361.544183,152.576297 411.704029,152.617573 411.704029,152.617573 L412.536315,152.617573 C433.40511,153.081935 450.02,170.944388 448.571207,192.33599 C447.214889,212.024933 429.983491,226.822597 410.316886,226.822597 L264.081193,226.822597 C263.988717,226.822597 263.896241,226.915469 263.896241,227.008342 L263.896241,258.646863 L263.896241,260.318565 C263.002305,316.537307 216.209349,361.549449 159.52144,359.289554 C105.330388,357.122532 63.346195,310.593475 63.346195,256.108351 C63.346195,255.705904 63.2845442,255.303457 63.2537188,254.90101 L63.2537188,121.783947 C63.2537188,105.871814 52.0024482,91.6313838 36.3123201,89.3714895 C16.7690171,86.5543609 0,101.692557 0,120.793308 L0,255.02484 L0.246603192,255.02484 C0.0924761971,256.232181 0,257.408564 0,258.646863 L0.030825399,261.371119 C1.47961915,350.869126 74.1659101,422.969043 163.621218,422.969043 C243.119922,422.969043 309.363705,366.03828 324.159896,290.594958 C324.221547,290.533043 324.252372,290.502085 324.314023,290.471128 L414.324188,290.471128 L415.125649,290.471128 C434.483999,290.93549 449.896699,307.497729 448.540381,327.341459 C447.307365,345.637316 431.247332,359.382427 412.998696,359.382427 L340.959739,359.382427 C340.898088,359.413384 340.867262,359.444341 340.805612,359.475299 C329.153611,383.157753 313.555959,404.518398 294.783291,422.690425 C294.844942,422.845213 294.844942,422.845213 294.906593,423 L414.293363,423 L415.896284,423 C469.070097,422.133191 511.917402,378.57605 511.917402,324.957735 C511.979052,298.984429 501.991623,275.425804 485.684987,257.903884 Z" id="路径"></path>
            </g>
        </g>
    </g>
</svg>