<svg t="1666954763047" class="icon" viewBox="0 0 1024 1024" version="1.1" xmlns="http://www.w3.org/2000/svg" p-id="1373" width="200" height="200">
	<path d="M332.501333 426.538667l-137.898666 137.898666c-20.138667 20.138667-31.232 46.933333-31.232 75.434667s11.093333 55.253333 31.232 75.434667l128 128c20.138667 20.138667 46.933333 31.232 75.434666 31.232h99.968c28.501333 0 55.296-11.093333 75.434667-31.232l87.936-87.936-328.874667-328.832zM1017.770667 368.810667l-298.666667-298.666667a21.930667 21.930667 0 0 0-30.165333 0L362.666667 396.373333l328.832 328.832 326.229333-326.229333a21.333333 21.333333 0 0 0 0.042667-30.165333zM234.666667 874.538667h-213.333334a21.333333 21.333333 0 0 1 0-42.666667h213.333334a21.333333 21.333333 0 0 1 0 42.666667z" p-id="1374">
	</path>
	<path d="M618.666667 959.872h-384a21.333333 21.333333 0 0 1 0-42.666667h384a21.333333 21.333333 0 0 1 0 42.666667z" p-id="1375">
	</path>
</svg>
