<svg t="1663747001555" class="icon" viewBox="0 0 1024 1024" version="1.1" xmlns="http://www.w3.org/2000/svg" p-id="1123" width="200" height="200"><path d="M576 432H352a32 32 0 1 0 0 64h224a32 32 0 1 0 0-64" p-id="1124"></path><path d="M496 576V352a32 32 0 1 0-64 0v224a32 32 0 1 0 64 0" p-id="1125"></path><path d="M464 72.021333a392.021333 392.021333 0 0 1 300.16 644.096l178.901333 178.858667a33.962667 33.962667 0 0 1 0 48.042667 33.877333 33.877333 0 0 1-48.085333 0l-178.858667-178.858667a392.021333 392.021333 0 1 1-252.16-692.181333z m0 64A327.04 327.04 0 0 0 232.064 232.106667a326.997333 326.997333 0 0 0-96.085333 231.893333 326.997333 326.997333 0 0 0 96.085333 231.936 326.997333 326.997333 0 0 0 231.936 96.085333 326.997333 326.997333 0 0 0 231.936-96.085333 326.997333 326.997333 0 0 0 96.085333-231.936 326.997333 326.997333 0 0 0-96.085333-231.936 327.04 327.04 0 0 0-231.936-96.042667z" p-id="1126"></path></svg>