<?xml version="1.0" encoding="UTF-8"?>
<svg width="80px" height="80px" viewBox="0 0 80 80" version="1.1" xmlns="http://www.w3.org/2000/svg" xmlns:xlink="http://www.w3.org/1999/xlink">
    <title>三一logo-上下</title>
    <g id="页面-1" stroke="none" stroke-width="1" fill="none" fill-rule="evenodd">
        <g id="三一logo-上下" fill="#E50012">
            <path d="M9.90653471,63.2085843 C10.2204588,63.0171754 10.6485903,63.0558083 10.9917984,63.5246724 C30.7982996,81.6412037 53.741699,80.0806651 70.0042551,63.8536381 C70.325793,63.3613602 70.7539245,63.3244832 71.039736,63.433358 C71.4467831,63.5890607 71.7413797,64.1065086 71.2687366,64.7714644 C64.606635,73.6570523 54.9792393,78.5921242 45.8016453,79.7130663 C32.2097867,81.3731142 17.9057421,75.765477 9.81165467,64.5671778 C9.35658189,63.964269 9.5369711,63.4345287 9.90653471,63.2085843 Z M37.1836678,23.1572942 L41.8486031,37.4596958 C39.7395721,36.781277 37.9983476,37.7623209 36.7455797,39.377297 L36.7455797,39.377297 L24.2231714,53.7183315 C24.0275545,54.0022254 24.1657748,54.2767538 24.360806,54.38797 C24.4018036,54.4107986 24.4457295,54.4312858 24.4902412,54.4388953 L24.4902412,54.4388953 L27.7349043,55.0020004 C28.1085676,55.0979976 28.2573302,55.3707699 28.2743149,55.6452983 C28.2924709,55.9291922 28.1120817,56.1908429 27.8338841,56.2962056 L27.8338841,56.2962056 L6.09112717,62.8345467 C5.4773353,62.9328852 5.01582004,62.690551 4.7487503,62.2696855 C4.47523809,61.8382838 4.52267811,61.2576182 4.91449753,60.7957784 L4.91449753,60.7957784 L37.1836678,23.1572942 Z M36.3388254,42.1022691 C36.9280188,44.4957585 38.2539966,45.4001217 40.0877584,45.7624523 L40.0877584,45.7624523 L59.3894041,49.6105324 C59.7337835,49.6386291 59.9030448,49.3822465 59.9012878,49.1580581 C59.9012878,49.1112302 59.8966024,49.0626463 59.880789,49.0210866 L59.880789,49.0210866 L58.7433999,45.9333741 C58.6403204,45.5622632 58.8019678,45.2988565 59.0321398,45.1466659 C59.2693399,44.9897925 59.586778,45.0155479 59.8175357,45.20403 L59.8175357,45.20403 L76.3840593,60.7549796 C76.77705,61.2373066 76.7981345,61.757096 76.5667912,62.1978633 C76.3295911,62.6491668 75.8018941,62.8967692 75.2045012,62.7878944 L75.2045012,62.7878944 L26.3770069,53.6154858 Z M45.1833918,3.37373626 L45.3038179,3.37486146 C56.3321584,4.71355313 65.5765198,10.6519121 71.1264165,18.0425204 C79.3458393,28.9873638 81.6176891,44.1753974 75.9442141,56.7726792 C75.6824155,57.3375403 75.3925043,57.4434884 74.9362601,57.3024194 C74.5040288,57.1683747 74.2832277,56.7726792 74.4530747,56.2452803 C80.2840975,30.0521124 67.1859665,10.9276112 45.0021931,4.93422946 C44.0129808,4.55375303 44.2267537,3.31632663 45.3038179,3.37486146 Z M36.2438868,3.30590743 C37.1862448,3.19000845 37.5417521,4.59952727 36.5214988,4.85708055 C10.9794406,12.9694233 0.484068192,33.6105621 6.57454683,55.9257972 C6.68231181,56.1903746 6.68992564,56.4409037 6.59563128,56.6252885 C6.3467176,57.113469 5.60876173,57.3306332 5.19117241,56.6036306 C0.748209539,46.4267642 1.25247938,35.6762564 4.80813818,27.1465603 C10.0728091,14.5135722 22.5038514,4.81259407 36.2438868,3.30590743 Z M40.5532563,0.000796512055 C41.0627972,-0.0185199834 41.5407115,0.314543227 41.7445279,0.886428563 L41.7445279,0.886428563 L58.1382761,47.7593682 L43.1267309,44.9098925 C44.4380668,43.7263181 45.2884731,42.2629473 44.4901923,39.7986307 L44.4901923,39.7986307 L38.2023397,21.1582126 C38.0547485,20.8462219 37.7484383,20.8274907 37.5545785,20.940463 C37.5141666,20.9638769 37.4749261,20.9919736 37.4462278,21.0265092 L37.4462278,21.0265092 L35.3354397,23.5511166 C35.0654416,23.8262303 34.7556173,23.8174501 34.509632,23.6939416 C34.2554472,23.5663357 34.1189839,23.2789296 34.1675953,22.9844994 L34.1675953,22.9844994 L39.3930257,0.878233686 C39.6149981,0.297568125 40.0560146,0.0201130075 40.5532563,0.000796512055 Z" id="LOGO"></path>
        </g>
    </g>
</svg>