<?xml version="1.0" encoding="UTF-8"?>
<svg width="158px" height="64px" viewBox="0 0 158 64" version="1.1" xmlns="http://www.w3.org/2000/svg" xmlns:xlink="http://www.w3.org/1999/xlink">
	<title>
		C3-三一盛景logo-渐变
	</title>
	<defs>
		<linearGradient x1="0%" y1="59.3764305%" x2="100%" y2="59.3764305%" id="linearGradient-1">
			<stop stop-color="#0066FF" offset="0%">
			</stop>
			<stop stop-color="#00B5FF" offset="100%">
			</stop>
		</linearGradient>
	</defs>
	<g id="页面-1" stroke="none" stroke-width="1" fill="none" fill-rule="evenodd">
		<g id="C3-三一盛景logo-渐变">
			<path d="M6.35966912,50.5668674 C6.61217585,50.4137403 6.95654605,50.4446467 7.23260753,50.8197379 C23.1640868,65.312963 41.6187492,64.064532 54.6996347,51.0829105 C54.9582657,50.6890881 55.3026359,50.6595866 55.5325301,50.7466864 C55.8599409,50.8712486 56.0969015,51.2852069 55.7167281,51.8171715 C50.3580263,58.9256418 42.6141722,62.8736994 35.2321188,63.770453 C24.299425,65.0984914 12.79388,60.6123816 6.28335178,51.6537422 C5.91731123,51.1714152 6.06240838,50.747623 6.35966912,50.5668674 Z M28.3001964,18.5258354 L32.0524654,29.9677566 C30.3560535,29.4250216 28.9554891,30.2098567 27.9478176,31.5018376 L27.9478176,31.5018376 L17.8753426,42.9746652 C17.717997,43.2017804 17.8291753,43.4214031 17.9860499,43.510376 C18.0190265,43.5286389 18.0543586,43.5450286 18.0901618,43.5511162 L18.0901618,43.5511162 L20.7000262,44.0016003 C21.0005846,44.078398 21.1202427,44.2966159 21.1339044,44.5162386 C21.1485083,44.7433538 21.0034112,44.9526743 20.7796412,45.0369645 L20.7796412,45.0369645 L3.29072293,50.2676373 C2.79701572,50.3463082 2.42579313,50.1524408 2.21097396,49.8157484 C1.99097276,49.470627 2.02913142,49.0060946 2.34429375,48.6366227 L2.34429375,48.6366227 L28.3001964,18.5258354 Z M27.6206424,33.6818153 C28.0945636,35.5966068 29.1611219,36.3200974 30.6361193,36.6099619 L30.6361193,36.6099619 L46.161515,39.6884259 C46.4385187,39.7109033 46.574665,39.5057972 46.5732518,39.3264465 C46.5732518,39.2889842 46.569483,39.2501171 46.5567634,39.2168693 L46.5567634,39.2168693 L45.6418976,36.7466993 C45.558985,36.4498106 45.6890071,36.2390852 45.8741473,36.1173327 C46.0649406,35.991834 46.3202739,36.0124383 46.5058852,36.163224 L46.5058852,36.163224 L59.8312689,48.6039837 C60.1473734,48.9898453 60.1643328,49.4056768 59.9782504,49.7582906 C59.7874571,50.1193335 59.3630008,50.3174154 58.8824842,50.2303155 L58.8824842,50.2303155 L19.6077932,42.8923886 Z M34.8316884,2.69988917 C43.7024009,3.77084251 51.138159,8.5215297 55.6022521,14.4340163 C62.2135946,23.189891 64.0409708,35.3403179 59.4774768,45.4181433 C59.2668975,45.8700323 59.0337056,45.9547907 58.6667229,45.8419355 C58.319055,45.7346997 58.1414523,45.4181433 58.2780698,44.9962243 C62.9682882,24.0416899 52.4327272,8.74208896 34.5890746,3.94738357 C33.7933957,3.64300243 33.9653453,2.6530613 34.8316884,2.69988917 Z M27.5442779,2.64472594 C28.3022692,2.55200676 28.5882237,3.67962182 27.7675768,3.88566444 C7.22266743,10.3755386 -1.21934894,26.8884497 3.67956447,44.7406377 C3.76624588,44.9522997 3.77237012,45.152723 3.69652387,45.3002308 C3.49630864,45.6907752 2.90272937,45.8645066 2.56683887,45.2829045 C-1.00688524,37.1414114 -0.601272739,28.5410051 2.25874296,21.7172482 C6.49341289,11.6108578 16.4923971,3.85007526 27.5442779,2.64472594 Z M31.0105453,0.000637209644 C31.4203977,-0.0148159867 31.8048109,0.251634581 31.9687519,0.70914285 L31.9687519,0.70914285 L45.1551626,38.2074946 L33.0805353,35.927914 C34.1353162,34.9810545 34.8193457,33.8103578 34.1772437,31.8389046 L34.1772437,31.8389046 L29.1195714,16.92657 C29.0008555,16.6769775 28.754473,16.6619926 28.5985407,16.7523704 C28.5660351,16.7711015 28.5344718,16.7935789 28.5113882,16.8212073 L28.5113882,16.8212073 L26.813563,18.8408933 C26.5963883,19.0609843 26.3471793,19.0539601 26.1493195,18.9551533 C25.9448644,18.8530685 25.8350994,18.6231437 25.8742002,18.3875995 L25.8742002,18.3875995 L30.0773068,0.702586949 C30.2558517,0.2380545 30.610586,0.016090406 31.0105453,0.000637209644 Z" id="三一logo-" fill="#E50012">
			</path>
			<rect id="分界线" fill="#243048" x="78" y="4" width="2" height="56">
			</rect>
			<path d="M121.525836,3.26760156 C124.549305,0.244132813 129.45118,0.244132813 132.474648,3.26760156 L132.474648,3.26760156 L155.732398,26.5253516 C158.755867,29.5493047 158.755867,34.4511797 155.732398,37.4746484 L155.732398,37.4746484 L132.474648,60.7323984 C129.45118,63.7558672 124.549305,63.7558672 121.525836,60.7323984 L121.525836,60.7323984 L98.2676016,37.4746484 C95.2441328,34.4511797 95.2441328,29.5493047 98.2676016,26.5253516 L98.2676016,26.5253516 Z M130.421867,6.58992969 C128.566227,4.73477344 125.579086,4.70086719 123.682758,6.48917969 L123.682758,6.48917969 L123.578617,6.58992969 L101.590414,28.5786172 C99.7352578,30.4337734 99.7008672,33.4209141 101.48918,35.3172422 L101.48918,35.3172422 L101.590414,35.4218672 L123.578617,57.4100703 C125.433773,59.2652266 128.420914,59.2991328 130.317242,57.5113047 L130.317242,57.5113047 L130.421867,57.4100703 L147.03593,40.7960078 L138.728414,40.7960078 L128.369086,51.1558203 C127.612977,51.9114453 126.387508,51.9114453 125.631398,51.1558203 L125.631398,51.1558203 L107.844664,33.3686016 C107.088555,32.6129766 107.088555,31.3875078 107.844664,30.6313984 L107.844664,30.6313984 L125.631398,12.8446641 C126.387508,12.0885547 127.612977,12.0885547 128.369086,12.8446641 L128.369086,12.8446641 L144.592258,29.0678359 L140.165555,29.0678359 C138.562273,29.0678359 137.262211,30.3678984 137.262211,31.9711797 L137.262211,31.9711797 L137.262211,32.0288203 C137.262211,33.6321016 138.562273,34.9321641 140.165555,34.9321641 L140.165555,34.9321641 L150.973898,34.9321641 C152.57718,34.9321641 153.877242,33.6321016 153.877242,32.0288203 L153.877242,32.0288203 L153.877242,31.9711797 C153.877242,31.6665078 153.829773,31.3724922 153.74307,31.0963984 C153.57693,30.2182266 153.16618,29.3773516 152.511305,28.6827578 L152.511305,28.6827578 L152.410555,28.5786172 Z M131.34949,25.703125 L125.744579,25.703125 L125.744579,28.0644284 L131.382431,28.064746 C132.21453,28.0808099 132.861926,28.7040631 132.861926,29.4418553 C132.861926,30.1893553 132.197381,30.8192823 131.34949,30.8192823 L131.34949,30.8192823 L125.744579,30.8192823 L125.744076,32.258536 C125.710904,34.2948633 124.042046,35.9354395 121.988202,35.9354395 C119.913611,35.9354395 118.231824,34.261553 118.231824,32.1967092 L118.231824,32.1967092 L118.231824,26.8893495 C118.231824,26.2342158 117.700733,25.703125 117.045599,25.703125 C116.390466,25.703125 115.859375,26.2342158 115.859375,26.8893495 L115.859375,26.8893495 L115.860196,32.2975844 C115.914318,35.6200132 118.637193,38.2967429 121.988202,38.2967429 C123.508293,38.2967429 124.899131,37.7459444 125.970596,36.8336642 C125.98064,36.8251094 125.990655,36.816523 126.000345,36.808128 C126.056999,36.7592559 126.112743,36.7093669 126.167457,36.6585899 C126.213633,36.6157214 126.259141,36.5721537 126.303914,36.5279483 C126.340218,36.492112 126.376073,36.4558266 126.411281,36.4193003 C126.427172,36.4028154 126.44297,36.3862422 126.458675,36.3695816 L126.458675,36.3695816 L126.538037,36.2837692 C127.310345,35.4326097 127.844955,34.3636885 128.03771,33.1806733 L128.03771,33.1806733 L131.382431,33.1809032 C132.21453,33.1969672 132.861926,33.8202204 132.861926,34.5580126 C132.861926,35.3055125 132.197381,35.9354395 131.34949,35.9354395 L131.34949,35.9354395 L128.948369,35.9362355 C128.454058,36.8459216 127.784804,37.6481986 126.984633,38.2980356 L126.984633,38.2980356 L131.34949,38.2967429 L131.413363,38.2962459 C133.51732,38.263488 135.234375,36.6153075 135.234375,34.5580126 C135.234375,33.564785 134.834164,32.6669137 134.182831,32.0003313 C134.833923,31.3334967 135.234375,30.4353829 135.234375,29.4418553 C135.234375,27.3637796 133.482457,25.703125 131.34949,25.703125 L131.34949,25.703125 Z" id="logo" fill="url(#linearGradient-1)" fill-rule="nonzero">
			</path>
		</g>
	</g>
</svg>
