<?xml version="1.0" encoding="UTF-8"?>
<svg width="16px" height="16px" viewBox="0 0 16 16" version="1.1" xmlns="http://www.w3.org/2000/svg" xmlns:xlink="http://www.w3.org/1999/xlink">
    <title>预览</title>
    <g id="页面-1" stroke="none" stroke-width="1" fill="none" fill-rule="evenodd">
        <g id="单指标预测展示" transform="translate(-1295.000000, -173.000000)" fill-rule="nonzero">
            <g id="编组-34" transform="translate(1222.000000, 173.000000)">
                <g id="预览" transform="translate(73.000000, 0.000000)">
                    <rect id="矩形" opacity="0" x="0" y="0" width="16" height="16"></rect>
                    <path d="M15.7490157,10.3293417 C15.9037066,10.4186525 15.9990001,10.5837057 15.9990001,10.7623274 L15.9990001,13.92013 C15.9990001,15.0690582 15.0690582,15.9990001 13.92013,15.9990001 L11.9462534,15.9990001 C11.7676317,15.9990001 11.6025785,15.9037066 11.5132677,15.7490157 C11.4239569,15.5943248 11.4239569,15.4037378 11.5132677,15.2490469 C11.6025785,15.0943561 11.7676317,14.9990626 11.9462534,14.9990626 L13.92013,14.9990626 C14.5160927,14.9990626 14.9990625,14.5160928 14.9990626,13.92013 L14.9990626,10.7623274 C14.9990626,10.5837057 15.0943561,10.4186525 15.2490469,10.3293417 C15.4037378,10.2400309 15.5943248,10.2400309 15.7490157,10.3293417 Z M0.49996875,10.4993438 C0.776093866,10.4993438 0.9999375,10.7231874 0.9999375,10.9993125 L0.9999375,13.92013 C0.9999375,14.5160928 1.48290731,14.9990626 2.07887008,14.9990626 L5.2366727,14.9990626 C5.41529434,14.9990626 5.58034754,15.0943561 5.66965837,15.2490469 C5.75896919,15.4037378 5.75896919,15.5943248 5.66965837,15.7490157 C5.58034754,15.9037066 5.41529434,15.9990001 5.2366727,15.9990001 L2.07887008,15.9990001 C0.930741837,15.9990001 2.22044605e-14,15.0682582 2.22044605e-14,13.92013 L2.22044605e-14,10.9993125 C2.22044605e-14,10.7231874 0.223843634,10.4993438 0.49996875,10.4993438 Z M7.99950003,3.99975002 C10.0403725,3.99975002 11.9052559,5.03968502 13.5931504,7.11955503 C13.891005,7.48671755 13.891005,8.01231376 13.5931504,8.37947628 C11.9052559,10.4593463 10.0403725,11.4992813 7.99950003,11.4992813 C5.95862758,11.4992813 4.09374414,10.4593463 2.40584964,8.37947628 C2.1079951,8.01231376 2.1079951,7.48671755 2.40584964,7.11955503 C4.09374414,5.03968502 5.95862758,3.99975002 7.99950003,3.99975002 Z M7.99950003,4.99968752 C6.28660709,4.99968752 4.6927067,5.88863195 3.18180114,7.74951566 C4.6927067,9.61039934 6.28660709,10.4993438 7.99950003,10.4993438 C9.71239297,10.4993438 11.3062934,9.61039936 12.8171989,7.74951566 C11.3062934,5.88863195 9.71239297,4.99968752 7.99950003,4.99968752 Z M7.99950003,5.49965627 C9.24198984,5.49975981 10.2491719,6.50702584 10.2491719,7.74951565 C10.2491719,8.99200546 9.24198984,9.99927149 7.99950003,9.99937503 C7.19565803,9.99944202 6.45284874,9.5706359 6.0509084,8.87449947 C5.64896806,8.17836304 5.64896806,7.32066826 6.0509084,6.62453183 C6.45284874,5.9283954 7.19565803,5.49958928 7.99950003,5.49965627 Z M7.99950003,6.49959378 C7.30918724,6.49959378 6.74957816,7.05920287 6.74957816,7.74951566 C6.74957816,8.43982845 7.30918724,8.99943753 7.99950003,8.99943753 C8.68981282,8.99943753 9.24942191,8.43982845 9.24942191,7.74951566 C9.24942191,7.05920287 8.68981282,6.49959378 7.99950003,6.49959378 Z M13.92013,2.22044605e-14 C15.0690582,2.22044605e-14 15.9990001,0.929941875 15.9990001,2.07887008 L15.9990001,4.99968752 C15.9990001,5.17830915 15.9037066,5.34336236 15.7490157,5.43267318 C15.5943248,5.521984 15.4037378,5.521984 15.2490469,5.43267318 C15.0943561,5.34336236 14.9990626,5.17830915 14.9990626,4.99968752 L14.9990626,2.07887008 C14.9990626,1.48290731 14.5160928,0.9999375 13.92013,0.9999375 L10.9993125,0.9999375 C10.7231874,0.9999375 10.4993438,0.776093866 10.4993438,0.49996875 C10.4993438,0.223843634 10.7231874,2.22044605e-14 10.9993125,2.22044605e-14 L13.92013,2.22044605e-14 Z M4.99968752,2.22044605e-14 C5.27581263,2.22044605e-14 5.49965627,0.223843634 5.49965627,0.49996875 C5.49965627,0.776093866 5.27581263,0.9999375 4.99968752,0.9999375 L2.07887008,0.9999375 C1.48290731,0.9999375 0.9999375,1.48290731 0.9999375,2.07887008 L0.9999375,4.99968752 C0.9999375,5.27581263 0.776093866,5.49965627 0.49996875,5.49965627 C0.223843634,5.49965627 2.22044605e-14,5.27581263 2.22044605e-14,4.99968752 L2.22044605e-14,2.07887008 C2.22044605e-14,0.929941875 0.929941875,2.22044605e-14 2.07887008,2.22044605e-14 L4.99968752,2.22044605e-14 Z" id="形状结合" fill="#000000" opacity="0.449999988"></path>
                </g>
            </g>
        </g>
    </g>
</svg>